<svg xmlns="http://www.w3.org/2000/svg" width="60" height="60" viewBox="0 0 60 60"><path fill-rule="evenodd" clip-rule="evenodd" d="M20.6667 40.6667C20.6667 40.313 20.8072 39.9739 21.0572 39.7239C21.3073 39.4738 21.6464 39.3333 22 39.3333H38C38.3536 39.3333 38.6928 39.4738 38.9428 39.7239C39.1929 39.9739 39.3334 40.313 39.3334 40.6667V56.6667C39.3334 57.0203 39.1929 57.3594 38.9428 57.6095C38.6928 57.8595 38.3536 58 38 58H22C21.6464 58 21.3073 57.8595 21.0572 57.6095C20.8072 57.3594 20.6667 57.0203 20.6667 56.6667V40.6667ZM23.3334 42V55.3333H36.6667V42H23.3334ZM30 4.66667C17.3307 4.66667 7.33335 13.7653 7.33335 24.6667H4.66669C4.66669 12.0053 16.16 2 30 2C43.84 2 55.3334 12.0053 55.3334 24.6667H52.6667C52.6667 13.7653 42.6694 4.66667 30 4.66667Z"></path><path fill-rule="evenodd" clip-rule="evenodd" d="M7.38669 24.1707C7.55469 23.4293 8.09602 22.664 9.08269 22.0053C10.2827 21.2053 12.016 20.6667 14 20.6667C15.984 20.6667 17.7174 21.2053 18.9174 22.0053C20.1254 22.8107 20.6667 23.7787 20.6667 24.6667H23.3334C23.3334 22.6107 22.0827 20.9093 20.3974 19.7867C18.7014 18.656 16.4347 18 14 18C11.5654 18 9.29869 18.656 7.60269 19.7867C5.92002 20.9067 4.66669 22.6107 4.66669 24.6667C4.66638 24.8419 4.7006 25.0154 4.7674 25.1774C4.83421 25.3394 4.93228 25.4866 5.05602 25.6107L21.056 41.6107L22.944 39.7227L7.38669 24.1707Z"></path><path fill-rule="evenodd" clip-rule="evenodd" d="M23.3414 24.4747C23.4134 23.64 23.96 22.7547 25.0827 22.0053C26.2827 21.2053 28.016 20.6667 30 20.6667C31.984 20.6667 33.7174 21.2053 34.9174 22.0053C36.1254 22.8107 36.6667 23.7787 36.6667 24.6667H39.3334C39.3334 22.6107 38.0827 20.9093 36.3974 19.7867C34.7014 18.656 32.4347 18 30 18C27.5654 18 25.2987 18.656 23.6027 19.7867C21.92 20.9067 20.6667 22.6107 20.6667 24.6667C20.667 24.8099 20.6904 24.9522 20.736 25.088L26.0694 41.088L28.5974 40.2453L23.3414 24.4747Z"></path><path fill-rule="evenodd" clip-rule="evenodd" d="M41.0827 22.0053C39.872 22.8107 39.3334 23.7787 39.3334 24.6667C39.333 24.8099 39.3096 24.9522 39.264 25.088L33.9307 41.088L31.4 40.2453L36.672 24.432C36.76 22.4827 37.9787 20.8667 39.6054 19.7867C41.2987 18.656 43.5627 18 46 18C48.4347 18 50.7014 18.656 52.3947 19.7867C54.0827 20.9093 55.3334 22.6107 55.3334 24.6667C55.3333 24.8421 55.2987 25.0157 55.2314 25.1777C55.1641 25.3397 55.0656 25.4868 54.9414 25.6107L38.9414 41.6107L37.056 39.7227L52.6107 24.1707C52.4454 23.4267 51.904 22.664 50.9174 22.0053C49.7174 21.2053 47.984 20.6667 46 20.6667C44.016 20.6667 42.2827 21.2053 41.0827 22.0053ZM28.6667 46V40.6667H31.3334V46H28.6667Z"></path></svg>