<svg xmlns="http://www.w3.org/2000/svg" width="60" height="60" viewBox="0 0 60 60"><g><path d="M54.5836 49.66C52.0363 48.8697 48.7179 48.2786 44.9051 47.9292C45.8302 46.9128 46.726 45.8702 47.5915 44.8025C50.519 41.1878 52.8541 37.5452 54.532 33.9763C56.6483 29.4748 57.7214 25.074 57.7214 20.8964C57.7213 9.43875 48.3997 0.117188 36.942 0.117188C31.5283 0.117188 26.4026 2.18754 22.5094 5.94691C18.8753 9.45609 16.6729 14.087 16.2411 19.08C15.747 19.0295 15.2506 19.0042 14.7539 19.0043C6.74966 19.0043 0.237671 25.5162 0.237671 33.5205C0.237671 41.5249 6.74966 48.0368 14.7539 48.0368C18.8901 48.0368 22.6275 46.2977 25.2741 43.5128C26.5163 45.1276 27.7749 46.6078 28.9766 47.9295C25.1647 48.2787 21.8472 48.8697 19.3003 49.66C15.864 50.726 14.1217 52.0952 14.1217 53.7298C14.1217 55.6546 16.5204 57.2021 21.2511 58.3297C25.4535 59.3311 31.0259 59.8828 36.942 59.8828C42.8581 59.8828 48.4306 59.3312 52.6328 58.3297C57.3635 57.2021 59.7622 55.6546 59.7622 53.7298C59.7622 52.0952 58.0199 50.726 54.5836 49.66ZM14.754 46.1619C7.78361 46.1619 2.11279 40.491 2.11279 33.5207C2.11279 26.5504 7.78361 20.8793 14.754 20.8793C21.7243 20.8793 27.3953 26.5502 27.3953 33.5205C27.3953 40.4909 21.7245 46.1619 14.754 46.1619ZM22.7496 20.903C22.7496 13.0773 29.1163 6.71063 36.942 6.71063C44.7676 6.71063 51.1343 13.0773 51.1343 20.903C51.1343 28.7286 44.7677 35.0953 36.942 35.0953C34.193 35.0953 31.5452 34.3139 29.2535 32.8331C29.0303 28.07 26.5008 23.9006 22.7592 21.4175C22.753 21.2461 22.7498 21.0745 22.7496 20.903ZM29.197 34.9814C31.5602 36.2855 34.2068 36.9703 36.942 36.9703C45.8016 36.9703 53.0093 29.7625 53.0093 20.903C53.0093 12.0435 45.8016 4.83551 36.942 4.83551C28.2627 4.83551 21.1697 11.7533 20.8846 20.3645C19.9913 19.9463 19.0573 19.621 18.0975 19.3937C18.8624 9.57363 26.9925 1.99219 36.942 1.99219C47.3659 1.99219 55.8463 10.4726 55.8463 20.8964C55.8463 29.7562 50.5785 38.1282 46.1593 43.5915C42.2951 48.3689 38.385 51.8189 36.9421 53.0343C35.3481 51.6911 30.7437 47.6195 26.504 42.0341C27.9731 40.0121 28.9344 37.5983 29.197 34.9814ZM52.198 56.5057C48.1341 57.4744 42.716 58.0078 36.942 58.0078C31.168 58.0078 25.75 57.4744 21.6859 56.5058C17.1858 55.4333 15.9968 54.221 15.9968 53.7299C15.9968 53.3558 16.8034 52.3979 19.856 51.4509C22.5583 50.6126 26.3657 49.9853 30.6159 49.6757C33.7609 52.9208 36.2015 54.8592 36.3615 54.9854C36.5269 55.116 36.7314 55.187 36.9421 55.1869C37.1472 55.1869 37.3524 55.1197 37.5226 54.9855C37.6668 54.8719 40.109 52.9334 43.2659 49.6755C47.5171 49.9852 51.3254 50.6125 54.0281 51.4509C57.0808 52.3979 57.8874 53.3558 57.8874 53.7299C57.8872 54.2209 56.6981 55.4332 52.198 56.5057ZM25.1078 31.296C25.0208 31.3832 24.9175 31.4523 24.8037 31.4994C24.69 31.5465 24.568 31.5707 24.4449 31.5705C24.3217 31.5707 24.1998 31.5465 24.086 31.4994C23.9722 31.4523 23.8689 31.3832 23.7819 31.296C21.3704 28.8845 18.1642 27.5564 14.7539 27.5564C11.3436 27.5564 8.1374 28.8845 5.72591 31.296C5.54973 31.47 5.31183 31.5673 5.06418 31.5665C4.81653 31.5658 4.57923 31.467 4.40412 31.2919C4.22901 31.1168 4.13031 30.8795 4.12957 30.6318C4.12883 30.3842 4.22611 30.1463 4.40017 29.9701C7.1658 27.2045 10.8428 25.6814 14.754 25.6814C18.6653 25.6814 22.3423 27.2045 25.1079 29.9701C25.2837 30.146 25.3824 30.3844 25.3824 30.6331C25.3823 30.8817 25.2836 31.1201 25.1078 31.296ZM22.5236 32.5542C22.6106 32.6413 22.6797 32.7446 22.7268 32.8584C22.7739 32.9721 22.7982 33.094 22.7982 33.2171C22.7982 33.3403 22.7739 33.4622 22.7268 33.5759C22.6797 33.6897 22.6106 33.793 22.5236 33.8801C22.4365 33.9671 22.3332 34.0362 22.2194 34.0833C22.1057 34.1304 21.9838 34.1547 21.8606 34.1547C21.7375 34.1547 21.6156 34.1304 21.5019 34.0833C21.3881 34.0362 21.2848 33.9671 21.1977 33.8801C17.6446 30.327 11.8634 30.327 8.31013 33.8801C8.13395 34.0541 7.89605 34.1514 7.6484 34.1506C7.40074 34.1499 7.16345 34.0511 6.98834 33.876C6.81323 33.7009 6.71453 33.4636 6.71379 33.2159C6.71305 32.9683 6.81033 32.7304 6.98439 32.5542C11.2685 28.2703 18.2395 28.2703 22.5236 32.5542ZM19.9394 35.1386C20.0705 35.2697 20.1598 35.4367 20.1959 35.6186C20.2321 35.8004 20.2135 35.9889 20.1426 36.1603C20.0716 36.3316 19.9515 36.478 19.7973 36.581C19.6431 36.684 19.4618 36.739 19.2764 36.739C19.1533 36.7392 19.0313 36.715 18.9175 36.6679C18.8038 36.6207 18.7004 36.5516 18.6135 36.4644C17.5826 35.4334 16.2119 34.8656 14.7539 34.8656C13.296 34.8656 11.9252 35.4334 10.8943 36.4644C10.8075 36.5523 10.7041 36.6222 10.5901 36.67C10.4762 36.7178 10.3539 36.7426 10.2303 36.743C10.1067 36.7434 9.98422 36.7193 9.86997 36.6722C9.75571 36.625 9.6519 36.5558 9.56451 36.4684C9.47712 36.381 9.40788 36.2772 9.36076 36.1629C9.31364 36.0487 9.28958 35.9262 9.28996 35.8026C9.29034 35.679 9.31515 35.5567 9.36298 35.4428C9.4108 35.3288 9.48068 35.2254 9.56861 35.1386C10.9536 33.7536 12.7951 32.9907 14.7539 32.9907C16.7127 32.9907 18.5543 33.7536 19.9394 35.1386ZM14.754 36.6455C13.1783 36.6455 11.8964 37.9274 11.8964 39.5031C11.8964 41.0788 13.1783 42.3607 14.754 42.3607C16.3297 42.3607 17.6117 41.0788 17.6117 39.5031C17.6117 37.9274 16.3297 36.6455 14.754 36.6455ZM14.754 40.4856C14.2122 40.4856 13.7714 40.0447 13.7714 39.503C13.7714 38.9612 14.2122 38.5204 14.754 38.5204C15.2959 38.5204 15.7367 38.9612 15.7367 39.503C15.7367 40.0447 15.2958 40.4856 14.754 40.4856ZM27.3711 23.09L35.7102 23.5211L40.2529 30.5273C40.3593 30.6915 40.5144 30.8183 40.6964 30.8899C40.8785 30.9616 41.0784 30.9744 41.2682 30.9267C41.4579 30.879 41.628 30.7731 41.7545 30.6239C41.881 30.4746 41.9577 30.2896 41.9738 30.0946L43.4944 11.7339C43.509 11.5568 43.473 11.3791 43.3906 11.2217C43.3082 11.0643 43.1827 10.9335 43.0288 10.8446C42.8749 10.7558 42.6989 10.7125 42.5213 10.7199C42.3438 10.7272 42.172 10.7849 42.0259 10.8861L26.8854 21.3833C26.7247 21.4948 26.6029 21.6538 26.537 21.8379C26.4712 22.0221 26.4645 22.2222 26.5181 22.4103C26.5716 22.5985 26.6826 22.7651 26.8356 22.887C26.9886 23.0089 27.1758 23.0799 27.3711 23.09ZM41.4619 13.5588L40.3318 27.2027L37.0231 22.0995C36.9424 21.9752 36.8335 21.8717 36.7052 21.7977C36.5769 21.7236 36.4328 21.6809 36.2849 21.6732L30.2108 21.3593L41.4619 13.5588Z"></path></g></svg>