<svg xmlns="http://www.w3.org/2000/svg" width="60" height="60" viewBox="0 0 60 60"><g><path d="M28.2679 30.1922C27.8097 30.6492 27.8097 31.3911 28.2679 31.8493C28.7261 32.3075 29.4677 32.3075 29.9249 31.8493C30.3831 31.3911 30.3831 30.6491 29.9249 30.1923C29.4677 29.7341 28.7261 29.734 28.2679 30.1922Z"></path><path d="M46.9016 3.54529C44.8907 5.10213 44.3427 5.90463 37.2107 12.9628L32.9352 12.2666L34.8971 10.3047C36.2714 8.93041 36.2718 6.70701 34.8971 5.33287C33.5234 3.95908 31.2987 3.95861 29.9249 5.33287L24.3832 10.8745L5.0025 7.71904C4.38392 7.61937 3.75053 7.66777 3.15429 7.86027C2.55804 8.05277 2.01592 8.38389 1.57242 8.82646C-0.151059 10.5498 0.0828475 13.4012 2.0489 14.8241L21.3625 28.8107L17.7465 32.427C16.5074 33.6661 15.2032 35.3704 13.8629 37.4985L4.85589 34.8499C4.20313 34.6582 3.51079 34.6457 2.85154 34.8138C2.19229 34.9819 1.59045 35.3244 1.10918 35.8053C-0.562621 37.477 -0.309965 40.2533 1.63183 41.5983L9.0157 46.7097C7.73015 49.5464 6.94886 51.5976 6.91265 51.6925C6.83261 51.9036 6.81524 52.1333 6.86264 52.3541C6.91005 52.5748 7.0202 52.7772 7.17986 52.9369C7.33952 53.0965 7.54189 53.2066 7.76264 53.254C7.9834 53.3014 8.21314 53.284 8.42425 53.204C8.51894 53.1682 10.5702 52.3863 13.4071 51.1009L18.5188 58.4851C19.866 60.4302 22.6424 60.6765 24.3123 59.0066C24.7931 58.5255 25.1354 57.9237 25.3034 57.2646C25.4713 56.6055 25.4586 55.9133 25.2667 55.2607L22.6186 46.2542C24.7481 44.9129 26.4514 43.6088 27.6901 42.3706L31.3065 38.7542L45.2925 58.0677C46.7175 60.0369 49.5689 60.2659 51.2906 58.5442C52.1864 57.6484 52.6008 56.3661 52.3979 55.1133L49.2425 35.7339L54.7837 30.1927C56.158 28.8184 56.158 26.5937 54.7837 25.2199C53.4101 23.8457 51.1867 23.8457 49.8124 25.2199L47.85 27.1819L47.1543 22.9064C54.2198 15.7671 55.0094 15.2319 56.5672 13.221C56.5691 13.2186 56.5713 13.216 56.5731 13.2133C60.1877 8.52892 61.0336 3.79795 58.6766 1.44002C56.3191 -0.916039 51.5877 -0.0709999 46.9016 3.54529ZM31.582 6.99037C32.0398 6.53216 32.7818 6.53216 33.24 6.99037C33.3489 7.09908 33.4353 7.2282 33.4942 7.37033C33.5532 7.51247 33.5835 7.66483 33.5835 7.81871C33.5835 7.97258 33.5532 8.12494 33.4942 8.26708C33.4353 8.40921 33.3489 8.53833 33.24 8.64705L30.0841 11.8024L27.2338 11.3383L31.582 6.99037ZM3.42304 12.9253C2.62113 12.3453 2.52914 11.1839 3.22992 10.4836C3.41045 10.3033 3.63116 10.1684 3.87394 10.0899C4.11672 10.0115 4.37465 9.99167 4.62656 10.0322L35.1686 15.0049L23.0411 27.132L3.42304 12.9253ZM2.76621 37.4632C2.94961 37.2797 3.17909 37.1489 3.43051 37.0847C3.68193 37.0205 3.946 37.0252 4.19496 37.0984L12.6192 39.5758C11.7577 41.0847 10.8884 42.7514 10.0214 44.5554L2.96625 39.6715C2.22609 39.1588 2.12906 38.1 2.76621 37.4632ZM22.6542 57.3504C22.0226 57.982 20.9624 57.897 20.4456 57.1507L15.5617 50.0952C17.3671 49.2273 19.0343 48.3576 20.5412 47.4979L23.0182 55.9217C23.1674 56.4288 23.0278 56.9763 22.6542 57.3504ZM51.47 26.877C51.5788 26.7681 51.7079 26.6817 51.85 26.6227C51.9921 26.5638 52.1445 26.5335 52.2984 26.5335C52.4523 26.5335 52.6046 26.5638 52.7467 26.6227C52.8889 26.6817 53.018 26.7681 53.1267 26.877C53.5849 27.3352 53.5844 28.0769 53.1267 28.5351L48.7784 32.8829L48.3146 30.0324L51.47 26.877ZM50.0844 55.4891C50.125 55.7412 50.1054 55.9993 50.027 56.2423C49.9486 56.4854 49.8137 56.7063 49.6335 56.8872C48.9362 57.5843 47.7741 57.4991 47.1913 56.6935L32.9848 37.076L45.1123 24.9485L50.0844 55.4891ZM26.033 40.7129C24.7435 42.0029 22.8561 43.3954 20.4236 44.8525C17.2614 46.7462 13.5191 48.5398 10.1436 49.9736C11.6162 46.5063 13.4436 42.7037 15.3782 39.5053C16.7931 37.1644 18.1475 35.3401 19.4041 34.0841C48.0299 5.52693 46.3338 6.99998 48.0711 5.61072C49.9983 5.48767 51.6948 6.05978 52.8758 7.2408C54.0568 8.42181 54.6295 10.1188 54.5064 12.0455C53.1138 13.7869 54.5696 12.1072 26.033 40.7129ZM56.5118 8.96615C56.1374 7.67427 55.4723 6.52255 54.5334 5.58365C53.5945 4.64533 52.4428 3.9797 51.1514 3.60529C52.8475 2.74513 55.7034 1.78197 57.0195 3.09716C58.0587 4.13662 57.8004 6.42506 56.5118 8.96615Z"></path><path d="M34.8973 23.5629L31.583 26.8768C31.1253 27.3345 31.1253 28.0765 31.583 28.5343C32.0408 28.992 32.7823 28.9916 33.2405 28.5343L36.5544 25.2201C37.0121 24.7628 37.0121 24.0208 36.5544 23.563C36.0966 23.1053 35.355 23.1051 34.8973 23.5629ZM41.5266 16.9336L38.2109 20.2489C37.7537 20.7065 37.7537 21.4485 38.2109 21.9064C38.6691 22.3636 39.4108 22.3636 39.8686 21.9064L43.1837 18.5911C43.6414 18.1334 43.6414 17.3914 43.1837 16.9336C42.7259 16.4759 41.9844 16.4759 41.5266 16.9336Z"></path></g></svg>