<svg xmlns="http://www.w3.org/2000/svg" class="icon2" width="35" height="35" viewBox="0 0 35 35"><path d="M7.30522 30.1843C8.90647 31.1967 10.9915 31.7104 13.5023 31.7104H14.2455C14.3479 31.7104 14.4461 31.6697 14.5185 31.5973C14.5909 31.5249 14.6315 31.4267 14.6315 31.3243C14.6315 31.222 14.5909 31.1238 14.5185 31.0514C14.4461 30.979 14.3479 30.9383 14.2455 30.9383H13.5018C11.1398 30.9383 9.19368 30.4648 7.7175 29.5316C7.67473 29.5044 7.627 29.4859 7.57705 29.4772C7.5271 29.4684 7.47591 29.4697 7.42645 29.4808C7.37698 29.492 7.33021 29.5128 7.28882 29.5421C7.24743 29.5714 7.21225 29.6086 7.1853 29.6515C7.15811 29.6944 7.13965 29.7422 7.13097 29.7921C7.12228 29.8421 7.12355 29.8933 7.13469 29.9428C7.14583 29.9923 7.16663 30.0391 7.19589 30.0805C7.22516 30.122 7.26231 30.1572 7.30522 30.1843ZM15.7454 31.7109H15.9168C16.0191 31.7109 16.1173 31.6702 16.1897 31.5978C16.2621 31.5254 16.3028 31.4272 16.3028 31.3249C16.3028 31.2225 16.2621 31.1243 16.1897 31.0519C16.1173 30.9795 16.0191 30.9388 15.9168 30.9388H15.7454C15.643 30.9388 15.5448 30.9795 15.4724 31.0519C15.4 31.1243 15.3593 31.2225 15.3593 31.3249C15.3593 31.4272 15.4 31.5254 15.4724 31.5978C15.5448 31.6702 15.643 31.7109 15.7454 31.7109Z"></path><path d="M33.5197 24.3295C33.599 23.5482 32.9772 22.8667 32.1933 22.8667H19.6602V19.7538C22.7469 18.2014 26.0282 18.6842 29.6846 21.2336C29.9451 21.4163 30.3126 21.2176 30.2904 20.8913C29.3598 6.95459 21.3412 3.84371 19.6607 3.34341V2.77981C19.6599 2.31562 19.4751 1.87069 19.1467 1.54255C18.8184 1.21441 18.3734 1.02984 17.9092 1.0293C17.4446 1.02943 16.999 1.21388 16.6703 1.54216C16.3415 1.87043 16.1564 2.31573 16.1556 2.78033V4.09437C14.4617 4.63121 5.96338 7.86202 5.01117 18.8309C5.00525 18.8976 5.01685 18.9648 5.04481 19.0256C5.07277 19.0865 5.11613 19.139 5.17061 19.178C5.22508 19.217 5.28879 19.2411 5.35543 19.2479C5.42207 19.2548 5.48933 19.2441 5.55058 19.2169C9.41757 17.5215 12.6947 18.3872 16.1556 22.0149V22.8672H2.80926C2.6205 22.8675 2.43394 22.9077 2.26186 22.9853C2.08977 23.0629 1.93607 23.176 1.81086 23.3173C1.68565 23.4585 1.59178 23.6247 1.53542 23.8048C1.47907 23.985 1.4615 24.175 1.48389 24.3625C1.56399 24.9864 1.68765 25.6041 1.85396 26.2108V26.218C3.21227 31.2168 7.34999 33.9705 13.5038 33.9705H21.4818C25.1598 33.9705 27.9218 32.6302 30.5174 30.2394C31.7311 29.1245 32.6951 28.2387 33.2006 26.2283V26.2252L33.2032 26.2164C33.2032 26.2139 33.2052 26.2118 33.2057 26.2097C33.3514 25.6451 33.4538 25.0305 33.5197 24.3295ZM19.6607 18.4058V4.97812C22.6172 9.97437 22.6182 14.3869 19.6607 18.4068V18.4058ZM16.1556 19.9839C14.3973 15.4292 14.3973 10.8272 16.1556 6.26025V19.9839ZM16.9276 2.7793C16.9276 2.51925 17.0309 2.26985 17.2148 2.08597C17.3987 1.90209 17.6481 1.79878 17.9082 1.79878C18.1682 1.79878 18.4176 1.90209 18.6015 2.08597C18.7854 2.26985 18.8887 2.51925 18.8887 2.7793V22.8662H16.9276V2.7793ZM29.995 29.6706C27.5779 31.8993 25.0065 33.1984 21.4818 33.1984H13.5038C10.2488 33.1984 4.60713 32.3147 2.74338 26.5021H32.3199C31.8464 27.97 31.0512 28.7009 29.995 29.6706Z"></path></svg>