<svg xmlns="http://www.w3.org/2000/svg" class="icon2" width="35" height="35" viewBox="0 0 35 35"><path d="M16.0053 28.3231H10.7846C10.6822 28.3231 10.584 28.3638 10.5116 28.4361C10.4392 28.5085 10.3986 28.6067 10.3986 28.7091C10.3986 28.8115 10.4392 28.9097 10.5116 28.9821C10.584 29.0545 10.6822 29.0951 10.7846 29.0951H16.0053C16.1076 29.0951 16.2058 29.0545 16.2782 28.9821C16.3506 28.9097 16.3913 28.8115 16.3913 28.7091C16.3913 28.6067 16.3506 28.5085 16.2782 28.4361C16.2058 28.3638 16.1076 28.3231 16.0053 28.3231ZM13.6227 30.5137H10.7846C10.6822 30.5137 10.584 30.5543 10.5116 30.6267C10.4392 30.6991 10.3986 30.7973 10.3986 30.8997C10.3986 31.0021 10.4392 31.1003 10.5116 31.1727C10.584 31.2451 10.6822 31.2857 10.7846 31.2857H13.6227C13.7251 31.2857 13.8232 31.2451 13.8956 31.1727C13.968 31.1003 14.0087 31.0021 14.0087 30.8997C14.0087 30.7973 13.968 30.6991 13.8956 30.6267C13.8232 30.5543 13.7251 30.5137 13.6227 30.5137ZM23.6893 28.2263H19.6854C19.3951 28.2263 19.1594 28.4621 19.1594 28.7529V30.7345C19.1594 31.0253 19.3951 31.261 19.6854 31.261H23.6898C23.9801 31.261 24.2158 31.0253 24.2158 30.735V28.7529C24.2158 28.4621 23.9801 28.2263 23.6893 28.2263Z"></path><path d="M30.9801 13.004C30.1824 6.17587 24.3904 1.02881 17.5 1.02881C10.6019 1.02881 4.80529 6.18565 4.01677 13.0266C3.99 13.2778 4.14647 13.5109 4.38838 13.5825L8.5925 19.3266C8.24616 19.7839 8.05792 20.3414 8.05618 20.915V31.3007C8.05699 32.0087 8.33859 32.6874 8.83919 33.188C9.33979 33.6886 10.0185 33.9702 10.7265 33.971H24.2761C24.9841 33.9703 25.663 33.6888 26.1637 33.1882C26.6644 32.6876 26.9461 32.0088 26.9469 31.3007V20.915C26.9451 20.344 26.7585 19.789 26.4152 19.3328C27.1646 18.326 30.031 14.477 30.749 13.514C30.8308 13.4623 30.8962 13.3884 30.9375 13.3009C30.9787 13.2134 30.9943 13.1159 30.9822 13.0199V13.0189C30.9815 13.0137 30.9806 13.0086 30.9796 13.0034L30.9801 13.004ZM24.2756 18.2447H23.3085L24.4907 13.9829C24.5339 13.9297 24.5683 13.8699 24.5926 13.8059C24.7671 13.1979 25.1344 12.6631 25.6393 12.2821C26.1441 11.9011 26.7591 11.6945 27.3916 11.6935C27.9248 11.691 28.4483 11.8361 28.904 12.113C29.3598 12.3898 29.7299 12.7875 29.9734 13.2618C26.5434 17.8679 26.0688 18.501 25.866 18.7826C25.4083 18.4353 24.8501 18.2465 24.2756 18.2447ZM17.886 18.2447V14.6026L17.8855 14.599C17.8865 12.9967 19.1929 11.6935 20.7988 11.6935C21.4315 11.6962 22.0463 11.9039 22.551 12.2853C23.0558 12.6668 23.4234 13.2015 23.5988 13.8095C23.6178 13.8743 23.6502 13.9309 23.6899 13.9824L22.5071 18.2447H17.886ZM9.14632 18.7743L5.10588 13.1229C5.36155 12.6869 5.72699 12.3255 6.16579 12.0747C6.60459 11.8239 7.10143 11.6925 7.60684 11.6935C8.90132 11.6935 10.0548 12.5623 10.4074 13.793C10.4259 13.8687 10.4624 13.9371 10.5113 13.9963L11.6946 18.2447H10.7265C10.1335 18.2447 9.59052 18.4454 9.14632 18.7743ZM12.496 18.2447L11.3107 13.9881C11.3518 13.9351 11.3858 13.8748 11.4059 13.8059C11.5805 13.1978 11.948 12.6631 12.453 12.2821C12.9581 11.9012 13.5733 11.6948 14.2059 11.694C14.9769 11.695 15.716 12.0017 16.2612 12.5468C16.8063 13.092 17.113 13.8311 17.114 14.6021V18.2447H12.4971H12.496ZM30.046 12.042C29.7023 11.6854 29.2898 11.4023 28.8336 11.2097C28.3774 11.0171 27.8868 10.9191 27.3916 10.9215C26.8473 10.9226 26.3099 11.0436 25.8176 11.2759C25.3253 11.5081 24.8902 11.846 24.5432 12.2654C24.4213 7.96344 22.8529 4.22204 19.2186 1.91565C24.5932 2.63624 28.9676 6.69315 30.046 12.042ZM15.7819 1.91513C12.1085 4.28226 10.5772 7.93565 10.4552 12.2705C10.1089 11.8502 9.67409 11.5114 9.18184 11.2783C8.6896 11.0452 8.152 10.9235 7.60735 10.922C6.58257 10.922 5.63449 11.3358 4.9525 12.0461C6.02927 6.69521 10.4058 2.63624 15.7819 1.91513ZM26.1749 31.3007C26.1743 31.8041 25.9741 32.2867 25.6181 32.6426C25.2621 32.9984 24.7795 33.1985 24.2761 33.199H10.7265C10.2232 33.1984 9.74069 32.9982 9.38482 32.6424C9.02895 32.2865 8.82878 31.804 8.82824 31.3007V20.915C8.82878 20.4117 9.02895 19.9292 9.38482 19.5733C9.74069 19.2175 10.2232 19.0173 10.7265 19.0167H15.1962V23.1359C15.1962 23.4473 15.5343 23.6414 15.8035 23.4839L17.2967 22.6109C17.3585 22.5747 17.4289 22.5556 17.5005 22.5556C17.5722 22.5556 17.6425 22.5747 17.7043 22.6109L19.198 23.4839C19.2593 23.5197 19.329 23.5388 19.4 23.5391C19.471 23.5395 19.5408 23.5211 19.6024 23.4858C19.664 23.4505 19.7153 23.3995 19.7509 23.3381C19.7865 23.2767 19.8053 23.2069 19.8054 23.1359V19.0167H24.2761C25.3024 19.0167 26.1749 19.8722 26.1749 20.915V31.3007Z"></path></svg>