<svg xmlns="http://www.w3.org/2000/svg" width="70" height="70" viewBox="0 0 70 70"><path d="M68.6328 18.5719C68.6328 9.08523 60.916 1.36719 51.4309 1.36719C43.7198 1.36719 37.1777 6.46803 35 13.4732C32.8225 6.46803 26.2802 1.36719 18.5691 1.36719C9.084 1.36719 1.36719 9.08523 1.36719 18.5719C1.36719 26.2779 6.45887 32.8167 13.4541 35C6.45887 37.1833 1.36719 43.7221 1.36719 51.4281C1.36719 60.9149 9.084 68.6328 18.5691 68.6328C26.2802 68.6328 32.8223 63.532 35 56.5268C37.1775 63.532 43.7198 68.6328 51.4309 68.6328C60.916 68.6328 68.6328 60.9149 68.6328 51.4281C68.6328 43.7221 63.5411 37.1833 56.5459 35C63.5411 32.8167 68.6328 26.2778 68.6328 18.5719ZM51.4309 17.7516H45.5051C45.9063 14.8386 48.4099 12.5873 51.4309 12.5873C54.7302 12.5873 57.4144 15.272 57.4144 18.5719C57.4144 21.5934 55.1636 24.0975 52.2512 24.4988V18.5719C52.2512 18.3543 52.1647 18.1457 52.0109 17.9918C51.8571 17.838 51.6484 17.7516 51.4309 17.7516ZM43.8516 50.6078H35.8911C36.3048 42.6773 42.6815 36.2996 50.6105 35.8857V43.8478C47.0606 44.2295 44.2332 47.0574 43.8516 50.6078ZM50.6105 45.5012V50.6078H45.5051C45.8693 47.9634 47.9665 45.8656 50.6105 45.5012ZM51.4309 52.2484C51.6484 52.2484 51.8571 52.162 52.0109 52.0082C52.1647 51.8543 52.2512 51.6457 52.2512 51.4281V45.5012C55.1636 45.9026 57.4144 48.4068 57.4144 51.4281C57.4144 54.728 54.7302 57.4126 51.4309 57.4126C48.4099 57.4126 45.9062 55.1612 45.5051 52.2484H51.4309ZM50.6105 19.3922V24.4988C47.9665 24.1344 45.8693 22.0366 45.5051 19.3922H50.6105ZM50.6105 26.1522V34.1142C42.6815 33.7004 36.305 27.3226 35.8911 19.3921H43.8516C44.2332 22.9425 47.0606 25.7705 50.6105 26.1521V26.1522ZM3.00781 18.5719C3.00781 9.9899 9.98867 3.00781 18.5691 3.00781C26.8745 3.00781 33.6809 9.54939 34.1089 17.7516H26.1484C25.7379 13.9315 22.4958 10.9467 18.5691 10.9467C14.3652 10.9467 10.945 14.3674 10.945 18.5719C10.945 22.4993 13.9293 25.7417 17.7488 26.1522V34.1142C9.54803 33.6861 3.00781 26.8788 3.00781 18.5719ZM18.5691 52.2484H24.4949C24.0937 55.1614 21.5901 57.4126 18.5691 57.4126C15.2698 57.4126 12.5856 54.7278 12.5856 51.4281C12.5856 48.4068 14.8364 45.9026 17.7488 45.5012V51.4281C17.7488 51.6457 17.8353 51.8543 17.9891 52.0082C18.1429 52.162 18.3516 52.2484 18.5691 52.2484ZM19.3895 50.6078V45.5012C22.0335 45.8656 24.1307 47.9634 24.4949 50.6078H19.3895ZM18.5691 17.7516C18.3516 17.7516 18.1429 17.838 17.9891 17.9918C17.8353 18.1457 17.7488 18.3543 17.7488 18.5719V24.4988C14.8364 24.0974 12.5856 21.5932 12.5856 18.5719C12.5856 15.272 15.2698 12.5873 18.5691 12.5873C21.5901 12.5873 24.0938 14.8386 24.4949 17.7516H18.5691ZM24.4949 19.3922C24.1307 22.0367 22.0335 24.1344 19.3895 24.4988V19.3922H24.4949ZM19.3895 26.1522C22.9394 25.7705 25.7668 22.9426 26.1484 19.3922H34.1089C33.6952 27.3227 27.3185 33.7004 19.3895 34.1143V26.1522ZM18.5691 66.9922C9.98854 66.9922 3.00781 60.0102 3.00781 51.4281C3.00781 43.1212 9.54817 36.3137 17.7488 35.8857V43.8478C13.9293 44.2583 10.945 47.5009 10.945 51.4281C10.945 55.6326 14.3652 59.0532 18.5691 59.0532C22.4958 59.0532 25.738 56.0684 26.1484 52.2484H34.1089C33.6809 60.4506 26.8745 66.9922 18.5691 66.9922ZM26.1484 50.6078C25.7668 47.0574 22.9394 44.2295 19.3895 43.8478V35.8857C27.3185 36.2995 33.695 42.6773 34.1089 50.6078H26.1484ZM23.6841 35C29.0686 33.3195 33.3251 29.0582 34.9999 23.6704C36.6747 29.0581 40.9311 33.3193 46.3157 35C40.9311 36.6805 36.6747 40.9418 34.9999 46.3296C33.3251 40.9418 29.0686 36.6805 23.6841 35ZM66.9921 51.4281C66.9921 60.0101 60.0112 66.9922 51.4307 66.9922C43.1253 66.9922 36.3189 60.4506 35.891 52.2484H43.8514C44.262 56.0685 47.504 59.0532 51.4307 59.0532C55.6347 59.0532 59.0548 55.6325 59.0548 51.4281C59.0548 47.5009 56.0705 44.2585 52.251 43.8478V35.8857C60.4518 36.3137 66.9921 43.1212 66.9921 51.4281ZM52.251 34.1142V26.1522C56.0705 25.7417 59.0548 22.4991 59.0548 18.5719C59.0548 14.3674 55.6347 10.9467 51.4307 10.9467C47.504 10.9467 44.2619 13.9315 43.8514 17.7516H35.891C36.3189 9.54939 43.1253 3.00781 51.4307 3.00781C60.0113 3.00781 66.9921 9.98977 66.9921 18.5719C66.9921 26.8788 60.4517 33.6863 52.251 34.1143V34.1142Z"></path></svg>