<svg xmlns="http://www.w3.org/2000/svg" width="30" height="30" viewBox="0 0 30 30"><path d="M26.5985 23.5632V22.3235C26.5986 21.9966 26.469 21.6831 26.2383 21.4516C26.0076 21.22 25.6945 21.0894 25.3677 21.0882H23.7794V8.10879L24.6706 6.58232H25.05C25.6015 6.58232 26.0559 6.12791 26.0559 5.57203V1.88821C26.0559 1.33232 25.6015 0.882324 25.05 0.882324H15.1633C14.6074 0.882324 14.1574 1.33232 14.1574 1.88821V5.57203C14.1574 6.12791 14.6074 6.58232 15.1633 6.58232H20.2544L21.1412 8.10879V21.0882H19.2353C19.3721 20.872 19.4559 20.6161 19.4559 20.3426V13.1161C19.4559 12.3397 18.8206 11.7044 18.0441 11.7044H9.49414C9.12007 11.7055 8.76166 11.8547 8.49715 12.1192C8.23265 12.3837 8.08354 12.7421 8.08237 13.1161V14.0029H6.04414C5.40884 14.0029 4.89708 14.5147 4.89708 15.1456V20.6073C4.89708 20.7794 4.93678 20.9426 5.00737 21.0882H4.63237C4.30552 21.0894 3.99245 21.22 3.76174 21.4516C3.53103 21.6831 3.40149 21.9966 3.40149 22.3235V23.5632C3.40149 23.7441 3.54708 23.8941 3.73237 23.8941H4.28384L3.76325 24.4147C3.52943 24.6485 3.40149 24.9573 3.40149 25.2882V25.9764C3.40149 26.6559 3.95296 27.2073 4.63237 27.2073H5.42208V28.7867C5.42208 28.9676 5.57208 29.1176 5.75296 29.1176H7.07208C7.17355 29.1176 7.2662 29.0735 7.32796 28.9941L8.78384 27.2073H21.2162L22.6677 28.9941C22.7338 29.0735 22.8265 29.1176 22.928 29.1176H24.2427C24.428 29.1176 24.5735 28.9676 24.5735 28.7867V27.2073H25.3677C26.0471 27.2073 26.5985 26.6559 26.5985 25.9764V25.2882C26.5985 24.9661 26.4662 24.6485 26.2368 24.4191L25.7118 23.8941H26.2677C26.4485 23.8941 26.5985 23.7441 26.5985 23.5632ZM20.4441 5.91615C20.4397 5.91615 20.4397 5.92056 20.4397 5.92056H15.1633C15.0716 5.9194 14.9841 5.88217 14.9197 5.81693C14.8552 5.75169 14.8191 5.66371 14.8191 5.57203V1.88821C14.8191 1.6985 14.9735 1.54409 15.1633 1.54409H25.05C25.2397 1.54409 25.3941 1.6985 25.3941 1.88821V5.57203C25.3941 5.76174 25.2397 5.92056 25.05 5.92056H24.4809V5.91615H20.4441ZM16.1074 18.5647H13.6456V17.5279H16.1074C16.2883 17.5279 16.4383 17.3779 16.4383 17.197C16.4383 17.0161 16.2883 16.8661 16.1074 16.8661H13.6456V15.1456C13.6456 15.0044 13.6191 14.872 13.5706 14.7441L13.7691 14.6382L14.8897 15.2338C14.9912 15.2867 15.1147 15.2823 15.2162 15.225C15.3133 15.1632 15.375 15.0573 15.375 14.9426V12.3661H18.0441C18.4544 12.3661 18.7941 12.7059 18.7941 13.1161V20.3426C18.7941 20.7397 18.4765 21.0706 18.0838 21.0882H13.5353C13.6059 20.9426 13.6456 20.7794 13.6456 20.6073V19.2264H16.1074C16.1951 19.2264 16.2793 19.1916 16.3413 19.1295C16.4034 19.0675 16.4383 18.9833 16.4383 18.8956C16.4383 18.8078 16.4034 18.7236 16.3413 18.6616C16.2793 18.5995 16.1951 18.5647 16.1074 18.5647ZM8.74414 13.1161C8.74414 12.7059 9.08384 12.3661 9.49414 12.3661H12.1633V14.0029H8.74414V13.1161ZM5.55884 15.1456C5.55884 14.8809 5.77502 14.6647 6.04414 14.6647H7.97649V16.5264C7.97649 16.7629 8.23855 16.9394 8.46178 16.8176L9.26914 16.3897L10.0809 16.8176C10.1312 16.844 10.1875 16.8571 10.2443 16.8554C10.3012 16.8538 10.3566 16.8376 10.4053 16.8084C10.4541 16.7791 10.4945 16.7378 10.5227 16.6884C10.5508 16.6391 10.5658 16.5833 10.5662 16.5264V14.6647H12.4985C12.7677 14.6647 12.9838 14.8809 12.9838 15.1456V20.6073C12.9838 20.8676 12.7721 21.0838 12.5074 21.0882H6.0309C5.77061 21.0838 5.55884 20.8676 5.55884 20.6073V15.1456ZM25.7691 24.8867C25.875 24.9926 25.9368 25.1382 25.9368 25.2882V25.9764C25.9368 26.2897 25.6809 26.5456 25.3677 26.5456H4.63237C4.31914 26.5456 4.06325 26.2897 4.06325 25.9764V25.2882C4.06325 25.1382 4.12061 24.9926 4.2309 24.8867L5.21914 23.8941H24.7765L25.7691 24.8867Z"></path><path d="M24.0406 4.89697C24.1283 4.89697 24.2125 4.86211 24.2745 4.80006C24.3366 4.73801 24.3714 4.65385 24.3714 4.56609V2.89668C24.3714 2.80892 24.3366 2.72476 24.2745 2.66271C24.2125 2.60066 24.1283 2.5658 24.0406 2.5658H16.1722C16.0844 2.5658 16.0003 2.60066 15.9382 2.66271C15.8761 2.72476 15.8413 2.80892 15.8413 2.89668V4.56609C15.8413 4.74874 15.9895 4.89697 16.1722 4.89697H24.0406ZM7.29702 18.5611H11.0369C11.1246 18.5611 11.2088 18.5262 11.2708 18.4642C11.3329 18.4021 11.3678 18.318 11.3678 18.2302C11.3678 18.1424 11.3329 18.0583 11.2708 17.9962C11.2088 17.9342 11.1246 17.8993 11.0369 17.8993H7.29658C7.20883 17.8993 7.12466 17.9342 7.06261 17.9962C7.00056 18.0583 6.9657 18.1424 6.9657 18.2302C6.9657 18.318 7.00056 18.4021 7.06261 18.4642C7.12466 18.5262 7.20883 18.5611 7.29658 18.5611H7.29702ZM11.0369 19.1809H7.29658C7.20883 19.1809 7.12466 19.2158 7.06261 19.2779C7.00056 19.3399 6.9657 19.4241 6.9657 19.5118C6.9657 19.5996 7.00056 19.6837 7.06261 19.7458C7.12466 19.8078 7.20883 19.8427 7.29658 19.8427H11.0369C11.1246 19.8427 11.2088 19.8078 11.2708 19.7458C11.3329 19.6837 11.3678 19.5996 11.3678 19.5118C11.3678 19.4241 11.3329 19.3399 11.2708 19.2779C11.2088 19.2158 11.1246 19.1809 11.0369 19.1809Z"></path></svg>