<svg xmlns="http://www.w3.org/2000/svg" width="30" height="30" viewBox="0 0 30 30"><g><path d="M29.1542 3.01112C29.2487 2.39929 29.0537 1.79929 28.6162 1.36476C28.1787 0.930283 27.5787 0.738154 26.9668 0.838642C25.5304 1.07214 24.5727 1.41796 24.1263 1.86726L18.54 7.45071L13.125 5.78958L14.1714 4.74614C14.672 4.23948 14.6872 3.42409 14.1714 2.89581C13.66 2.38745 12.8295 2.38745 12.3181 2.89581L10.2964 4.92351L9.10818 4.557L10.1604 3.51063C10.6676 3.00339 10.6783 2.17528 10.1604 1.65737C9.63634 1.13952 8.82025 1.15036 8.30714 1.65737L6.27652 3.688L4.08927 3.01704C3.98579 2.98452 3.87054 3.01411 3.79366 3.09093L1.4232 5.46438C1.35816 5.52643 1.32857 5.61515 1.33747 5.7038C1.34632 5.79251 1.39659 5.87226 1.47048 5.92253L12.8088 13.1849L7.46181 18.5318L2.5789 17.9466C2.53467 17.9419 2.48996 17.9472 2.44803 17.962C2.4061 17.9769 2.36801 18.0009 2.33656 18.0323L0.908919 19.46C0.771926 19.591 0.798352 19.8341 0.982805 19.9329L4.54741 21.7477C4.09314 22.8496 4.3714 24.1468 5.30702 24.9576C6.1012 25.652 7.23763 25.8225 8.23618 25.4099L10.0777 29.0277C10.1741 29.2078 10.4119 29.2404 10.5505 29.1016L11.9782 27.674C12.0432 27.609 12.0728 27.5203 12.0639 27.4287L11.4727 22.4955L16.802 17.1662L24.088 28.537C24.1382 28.6139 24.218 28.6641 24.3067 28.673H24.3363C24.4161 28.673 24.49 28.6435 24.5461 28.5873L26.9196 26.2168C26.9965 26.137 27.026 26.0246 26.9935 25.9212L26.3077 23.6866L28.3236 21.6737C28.8319 21.1624 28.8319 20.3318 28.3236 19.8204C28.0753 19.5722 27.7472 19.4362 27.3984 19.4362C27.226 19.4358 27.0552 19.4696 26.8959 19.5355C26.7367 19.6015 26.592 19.6983 26.4703 19.8204L25.4388 20.855L25.0752 19.6697L27.0851 17.6627V17.6597C27.5906 17.1514 27.5906 16.3208 27.0821 15.8094C26.8338 15.5641 26.5057 15.4281 26.157 15.4281C25.8171 15.4281 25.4801 15.5671 25.2318 15.8094L24.2062 16.838L22.5451 11.4231L28.1137 5.85438C28.5837 5.38458 28.9325 4.42985 29.1542 3.01112ZM6.91794 3.88604L8.72685 2.07714C8.99878 1.8052 9.46876 1.8052 9.74064 2.07714C10.023 2.35347 10.026 2.80558 9.74064 3.09099L8.46968 4.36194C7.98499 4.21323 6.84452 3.86349 6.91794 3.88604ZM26.89 20.2403C27.162 19.9684 27.629 19.9654 27.9039 20.2403C28.1847 20.5182 28.1847 20.9763 27.9039 21.2542L26.1127 23.0483L25.6338 21.4936L26.89 20.2403ZM25.6487 16.2293C25.9235 15.9603 26.3965 15.9633 26.6654 16.2264C26.9433 16.5071 26.9433 16.9653 26.6654 17.2431L24.8801 19.0314L24.4014 17.4766L25.6487 16.2293ZM12.4866 5.59446L10.9348 5.11856L12.7378 3.31558C13.0157 3.03479 13.4738 3.03479 13.7516 3.31265C14.0364 3.60362 14.0262 4.05474 13.7516 4.32942L12.4866 5.59446ZM8.78304 24.3488C7.92886 25.203 6.57212 25.2739 5.69427 24.5113C4.77991 23.7182 4.60068 22.2592 5.59372 21.2659C5.62501 21.2345 22.0122 4.80895 24.5432 2.28397C24.8919 1.93815 25.7875 1.63077 27.0645 1.42089C27.4667 1.35392 27.8902 1.4752 28.1995 1.78446C28.5009 2.083 28.6369 2.49679 28.569 2.91948C28.3207 4.52741 27.9571 5.17476 27.697 5.43778L8.78304 24.3488Z"></path><path d="M8.96981 20.593C8.94234 20.6204 8.92056 20.653 8.90569 20.6888C8.89083 20.7247 8.88318 20.7631 8.88318 20.802C8.88318 20.8408 8.89083 20.8792 8.90569 20.9151C8.92056 20.9509 8.94234 20.9835 8.96981 21.0109C8.99724 21.0384 9.02982 21.0602 9.06568 21.075C9.10153 21.0899 9.13997 21.0975 9.17878 21.0975C9.2176 21.0975 9.25603 21.0899 9.29189 21.075C9.32774 21.0602 9.36032 21.0384 9.38776 21.0109L24.8058 5.59292C24.9213 5.47743 24.9213 5.2904 24.8058 5.17497C24.6903 5.05954 24.5033 5.05948 24.3879 5.17497L8.96981 20.593Z"></path></g></svg>